<svg width="1451" height="2222" viewBox="0 0 1451 2222" fill="none" xmlns="http://www.w3.org/2000/svg">
<path fill-rule="evenodd" clip-rule="evenodd" d="M43.6427 216.63C39.0219 218.106 29.1316 225.305 21.6619 232.627C-0.442286 254.291 0.000657691 251.246 0.000657691 381.579V493.358L13.2772 502.171C20.5775 507.02 27.5244 510.987 28.7129 510.987C29.9014 510.987 32.3243 512.735 34.0961 514.869C35.8704 517.004 39.5423 519.725 42.2605 520.916C48.14 523.489 56.3988 528.55 58.0932 530.617C58.7588 531.431 62.9851 534.154 67.4873 536.669C77.6123 542.328 80.195 543.923 96.8215 554.767C137.089 581.032 191.822 615.069 193.792 615.069C195.041 615.069 196.063 615.958 196.063 617.042C196.063 618.126 199.602 620.842 203.93 623.079C212.668 627.593 216.008 629.672 232.831 641.09C239.206 645.418 245.057 648.957 245.831 648.957C246.606 648.957 248.874 650.591 250.871 652.587C252.868 654.584 256.058 656.218 257.958 656.218C260.921 656.218 261.417 633.504 261.417 497.969C261.417 326.492 262.267 337.958 249.014 330.752C246.47 329.37 230.238 319.25 212.946 308.268C195.651 297.286 180.422 288.299 179.1 288.299C177.781 288.299 176.699 287.394 176.699 286.287C176.699 285.181 173.702 282.741 170.042 280.863C166.382 278.987 158.223 273.902 151.913 269.562C145.602 265.224 139.873 261.673 139.181 261.673C138.488 261.673 132.703 258.132 126.328 253.807C109.505 242.389 106.165 240.31 97.4267 235.795C93.0988 233.559 89.56 230.843 89.56 229.759C89.56 228.674 88.5095 227.786 87.2242 227.786C85.9389 227.786 79.735 224.518 73.4368 220.524C61.3342 212.849 57.1685 212.304 43.6427 216.63ZM360.634 406.299C360.62 407.297 360.632 561.37 360.658 748.682L360.707 1089.25L344.344 1098.74C335.345 1103.96 319.267 1112.86 308.617 1118.52C297.967 1124.18 287.534 1130.31 285.431 1132.14C283.33 1133.98 280.062 1135.52 278.169 1135.56C276.279 1135.6 272.614 1137.23 270.032 1139.19C267.446 1141.14 264.452 1142.74 263.375 1142.74C262.298 1142.74 261.417 1059.99 261.417 958.846V774.947L254.761 771.181C251.101 769.109 245.149 765.541 241.535 763.254C235.302 759.303 200.224 737.027 190.142 730.618C187.552 728.972 173.075 719.728 157.969 710.075C142.865 700.422 129.462 692.526 128.187 692.526C126.911 692.526 125.868 691.638 125.868 690.553C125.868 689.469 122.329 686.753 118.001 684.517C108.835 679.782 100.963 674.948 99.242 673.002C98.5764 672.249 92.041 668.115 84.7189 663.819C77.3968 659.52 58.8798 648.001 43.57 638.219C28.2602 628.438 14.8893 620.942 13.8582 621.564C12.827 622.183 12.2824 621.249 12.6479 619.484C13.0255 617.671 11.2125 616.28 8.47248 616.28C3.64838 616.28 3.62902 618.097 3.02147 1111.88C2.48896 1543.84 2.86173 1607.48 5.92369 1607.48C7.85769 1607.48 14.2817 1604.22 20.1999 1600.22C26.1181 1596.23 31.5982 1592.96 32.3776 1592.96C33.157 1592.96 39.7819 1589.13 47.0991 1584.45C54.4164 1579.77 62.8785 1574.85 65.9042 1573.53C68.9298 1572.2 74.9473 1568.95 79.2727 1566.31C93.169 1557.81 130.464 1535.61 182.915 1504.61C187.422 1501.95 196.852 1496.65 203.872 1492.84C210.893 1489.03 218.356 1484.4 220.459 1482.56C222.56 1480.71 224.916 1479.2 225.693 1479.2C227.537 1479.2 262.262 1459.34 263.838 1457.39C264.503 1456.56 275.395 1449.98 288.043 1442.76C319.955 1424.54 317.873 1425.75 374.92 1392.06C434.586 1356.82 429.258 1359.94 453.456 1346.06C463.891 1340.07 474.261 1334.09 476.502 1332.75C483.13 1328.81 504.355 1316.07 508.702 1313.42C510.915 1312.07 521.262 1306.07 531.697 1300.09C542.132 1294.1 552.848 1287.88 555.51 1286.26C558.173 1284.65 561.985 1282.53 563.982 1281.56C565.979 1280.59 573.086 1276.46 579.774 1272.39C586.464 1268.31 594.089 1263.67 596.717 1262.08C599.348 1260.48 609.67 1254.37 619.654 1248.5C629.639 1242.63 646.851 1232.5 657.906 1225.99C668.96 1219.48 679.86 1213.06 682.125 1211.73C684.393 1210.4 693.865 1205.04 703.177 1199.83C712.488 1194.62 720.651 1189.72 721.316 1188.94C722.553 1187.49 725.881 1185.53 745.33 1174.8C751.427 1171.43 759.137 1166.83 762.465 1164.58C765.793 1162.32 770.15 1159.78 772.147 1158.92C774.144 1158.07 780.135 1154.63 785.46 1151.28C790.785 1147.93 797.865 1143.83 801.193 1142.15C808.351 1138.56 815.716 1132.62 815.716 1130.44C815.716 1128.76 787.45 1108.86 785.068 1108.86C784.269 1108.86 778.312 1105.04 771.825 1100.38C765.341 1095.72 759.536 1091.91 758.929 1091.91C757.697 1091.91 710.903 1062.44 689.169 1047.97C681.472 1042.85 674.653 1038.66 674.014 1038.66C673.378 1038.66 667.433 1034.85 660.803 1030.19C654.173 1025.53 648.248 1021.72 647.635 1021.72C647.023 1021.72 641.567 1018.37 635.509 1014.28L624.495 1006.85V948.634V890.418L629.941 894.378C632.938 896.557 637.022 899.072 639.018 899.97C641.015 900.868 647.812 905.208 654.122 909.618C660.433 914.028 666.162 917.635 666.854 917.635C667.547 917.635 673.537 921.447 680.167 926.106C686.797 930.766 692.788 934.578 693.48 934.578C694.172 934.578 700.163 938.391 706.793 943.05C713.423 947.71 719.544 951.522 720.396 951.522C721.251 951.522 727.254 955.334 733.741 959.994C740.225 964.653 746.03 968.466 746.637 968.466C747.869 968.466 794.663 997.938 816.397 1012.4C824.094 1017.53 830.912 1021.72 831.552 1021.72C832.188 1021.72 838.133 1025.53 844.763 1030.19C851.393 1034.85 857.383 1038.66 858.076 1038.66C858.768 1038.66 864.759 1042.47 871.388 1047.13C878.018 1051.79 884.14 1055.6 884.992 1055.6C885.846 1055.6 891.576 1059.16 897.726 1063.51C903.874 1067.86 911.63 1072.8 914.958 1074.5C923.662 1078.93 925.41 1080.02 960.948 1103.11C970.932 1109.6 980.191 1115.46 981.522 1116.13C987.639 1119.23 1009.52 1133.69 1008.87 1134.21C1008.24 1134.71 983.548 1149.17 899.59 1198.21C889.141 1204.31 878.793 1210.44 876.595 1211.81C874.397 1213.19 868.242 1216.76 862.917 1219.73C857.591 1222.72 848.878 1227.86 843.552 1231.17C838.227 1234.47 828.969 1239.96 822.978 1243.37C816.987 1246.77 807.729 1252.19 802.404 1255.4C797.078 1258.61 790.543 1262.33 787.88 1263.67C785.218 1265.01 779.067 1268.58 774.212 1271.59C761.705 1279.37 677.558 1328.88 661.846 1337.7C654.628 1341.76 647.413 1346.39 645.808 1347.99C644.203 1349.6 641.996 1350.91 640.899 1350.91C639.06 1350.91 608.687 1368.34 593.505 1378.1C589.916 1380.41 584.799 1383.39 582.136 1384.72C579.474 1386.05 572.938 1389.87 567.613 1393.21C562.288 1396.55 555.208 1400.59 551.88 1402.19C548.551 1403.79 544.194 1406.38 542.198 1407.95C540.201 1409.51 533.665 1413.51 527.674 1416.82C521.684 1420.14 512.97 1425.15 508.31 1427.97C503.651 1430.78 495.481 1435.52 490.156 1438.51C484.831 1441.49 478.647 1445.06 476.415 1446.43C467.202 1452.12 439.582 1468.56 433.572 1471.93C426.25 1476.05 396.291 1493.64 390.133 1497.43C387.901 1498.81 381.717 1502.38 376.392 1505.37C371.067 1508.36 363.442 1512.88 359.448 1515.44C355.454 1517.99 349.463 1521.59 346.135 1523.44C331.61 1531.53 319.601 1538.53 303.776 1548.11C294.457 1553.75 282.476 1560.78 277.15 1563.72C271.825 1566.67 263.491 1571.45 258.631 1574.36C234.83 1588.6 225.521 1594.08 183.96 1618.38C112.056 1660.42 101.757 1666.48 92.3847 1672.25C87.5025 1675.25 78.0625 1680.57 71.406 1684.06C64.7496 1687.56 58.7588 1691.18 58.0932 1692.12C57.4275 1693.06 50.8921 1697.11 43.57 1701.13C16.9613 1715.73 10.8131 1719.39 6.51671 1723.21C2.3873 1726.87 2.18397 1733.96 2.88592 1849.8L3.63144 1972.51L11.1883 1983.03C15.3468 1988.82 23.3369 1996.82 28.9477 2000.82C38.286 2007.47 40.8179 2008.08 59.013 2008.08C74.8263 2008.08 80.3402 2007.1 86.0357 2003.27C96.3713 1996.32 102.173 1992.87 108.084 1990.18C110.95 1988.87 114.051 1986.58 114.975 1985.08C115.9 1983.59 119.001 1981.36 121.867 1980.14C124.733 1978.92 134.703 1972.99 144.022 1966.96C153.341 1960.93 162.599 1955.26 164.596 1954.36C166.593 1953.45 173.182 1949.37 179.24 1945.3C191.403 1937.11 194.661 1935.05 210.586 1925.52C219.745 1920.04 239.364 1907.86 275.347 1885.31C279.002 1883.02 285.259 1879.33 289.253 1877.11C293.247 1874.88 297.059 1872.4 297.725 1871.59C298.39 1870.78 301.114 1868.8 303.776 1867.19C306.439 1865.59 314.562 1860.69 321.831 1856.3C329.097 1851.91 337.811 1846.67 341.195 1844.65C344.577 1842.62 355.515 1835.68 365.499 1829.22C390.997 1812.72 394.943 1810.2 401.906 1806.03C434.964 1786.19 441.485 1782.17 454.938 1773.27C460.996 1769.26 468.948 1764.45 472.608 1762.57C476.267 1760.69 479.264 1758.25 479.264 1757.15C479.264 1756.04 480.324 1755.14 481.622 1755.14C482.919 1755.14 495.172 1748.13 508.852 1739.57C522.533 1731.01 542.44 1718.82 553.09 1712.48C563.74 1706.14 572.999 1700.27 573.664 1699.44C574.33 1698.61 580.865 1694.43 588.187 1690.14C603.434 1681.22 665.637 1642.47 669.275 1639.63C670.606 1638.59 678.775 1633.5 687.429 1628.31C702.085 1619.53 717.855 1609.69 738.26 1596.57C742.919 1593.57 757.902 1584.18 771.554 1575.7C785.206 1567.22 799.366 1558.39 803.021 1556.08C806.676 1553.77 811.948 1550.87 814.736 1549.63C817.525 1548.39 821.337 1545.92 823.208 1544.15C825.079 1542.37 831.51 1538.26 837.501 1535.02C843.492 1531.77 853.556 1525.51 859.867 1521.1C866.177 1516.69 871.841 1513.08 872.453 1513.08C873.066 1513.08 878.795 1509.54 885.185 1505.22C891.576 1500.89 900.616 1495.17 905.276 1492.51C916.088 1486.33 931.88 1476.59 958.234 1459.83C969.754 1452.51 981.043 1445.43 983.323 1444.1C988.055 1441.34 1020.88 1420.73 1033.56 1412.55C1046.41 1404.27 1063.08 1393.86 1070.13 1389.72C1077.05 1385.64 1138.74 1347.38 1149.24 1340.65C1152.85 1338.34 1159.34 1334.59 1163.67 1332.34C1167.99 1330.07 1171.53 1327.34 1171.53 1326.26C1171.53 1325.17 1172.63 1324.28 1173.98 1324.28C1175.32 1324.28 1185.71 1318.29 1197.06 1310.97C1208.41 1303.65 1218.16 1297.66 1218.74 1297.66C1219.32 1297.66 1226.09 1293.47 1233.79 1288.34C1241.48 1283.22 1259.76 1271.61 1274.41 1262.55C1312.99 1238.66 1326.82 1229.92 1334.22 1224.77C1337.82 1222.26 1341.22 1220.2 1341.76 1220.2C1342.31 1220.2 1357.33 1210.92 1375.14 1199.59C1392.96 1188.25 1409.86 1177.98 1412.7 1176.76C1422.97 1172.36 1444.5 1148.78 1447.22 1138.95C1456.28 1106.33 1444.45 1077.34 1415.07 1060.12C1408.26 1056.14 1393.7 1047.22 1382.7 1040.32C1371.71 1033.42 1348.84 1019.05 1331.89 1008.4C1314.93 997.754 1299.97 988.587 1298.63 988.035C1297.3 987.484 1291.05 983.398 1284.73 978.958C1278.41 974.519 1272.65 970.886 1271.91 970.886C1271.18 970.886 1267.63 968.846 1264.02 966.352C1260.41 963.857 1245.48 954.412 1230.84 945.364C1187.47 918.566 1182.57 915.461 1179.5 912.856C1177.89 911.491 1175.98 910.373 1175.24 910.373C1174.51 910.373 1164.62 904.382 1153.27 897.06C1141.92 889.738 1131.58 883.747 1130.3 883.747C1129.01 883.747 1127.96 882.859 1127.96 881.775C1127.96 880.69 1124.42 877.924 1120.1 875.624C1110.79 870.681 1106.21 867.9 1091.66 858.344C1085.67 854.413 1078.59 849.959 1075.92 848.449C1073.26 846.941 1064 841.231 1055.35 835.76C1046.69 830.29 1033.78 822.239 1026.65 817.868C1019.51 813.496 1011.21 808.287 1008.2 806.291C1005.19 804.294 995.777 798.533 987.283 793.486C978.789 788.442 956.591 774.589 937.953 762.702C919.315 750.817 898.075 737.589 890.753 733.307C883.431 729.025 876.895 724.855 876.229 724.036C875.564 723.218 869.636 719.336 863.057 715.405C847.58 706.158 840.382 701.755 810.827 683.449C797.393 675.13 785.373 668.321 784.117 668.321C782.858 668.321 781.829 667.416 781.829 666.309C781.829 665.203 778.835 662.768 775.173 660.897C771.51 659.028 765.793 655.698 762.465 653.498C751.018 645.933 689.503 607.387 676.657 599.73C674.06 598.181 666.719 593.377 660.343 589.049C653.967 584.721 648.311 581.182 647.776 581.182C647.241 581.182 637.155 575.177 625.362 567.84C601.895 553.235 600.561 552.388 588.187 544.196C583.528 541.113 578.082 537.811 576.085 536.865C574.088 535.916 569.576 533.244 566.059 530.93C562.54 528.616 553.826 523.145 546.695 518.779C539.562 514.409 526.101 505.947 516.782 499.971C507.463 493.997 497.493 488.108 494.627 486.883C491.761 485.661 488.66 483.437 487.736 481.941C486.811 480.445 483.711 478.153 480.845 476.845C473.762 473.619 464.6 467.96 417.064 437.449C407.483 431.301 399.031 426.269 398.281 426.269C397.53 426.269 391.438 422.418 384.745 417.712C378.05 413.007 371.524 409.804 370.246 410.593C368.966 411.385 367.92 410.332 367.92 408.258C367.92 406.183 366.286 404.484 364.289 404.484C362.292 404.484 360.646 405.302 360.634 406.299Z" fill="#2563EB"/>
</svg>
